<?xml version="1.0" encoding="iso-8859-1"?>
<!-- Generator: Adobe Illustrator 19.0.0, SVG Export Plug-In . SVG Version: 6.00 Build 0)  -->
<svg version="1.1" id="Layer_1" xmlns="http://www.w3.org/2000/svg" xmlns:xlink="http://www.w3.org/1999/xlink" x="0px" y="0px"
	 viewBox="0 0 512 512" style="enable-background:new 0 0 512 512;" xml:space="preserve">
<g>
	<g>
		<path d="M342.519,356.125h-43.178V43.339C299.341,19.443,279.899,0,256,0c-23.899,0-43.341,19.443-43.341,43.339v312.785h-43.178
			c-19.122,0-34.678,15.556-34.678,34.677c0,9.264,3.606,17.972,10.156,24.522l86.518,86.518C238.027,508.393,246.736,512,256,512
			c9.264,0,17.973-3.607,24.522-10.157l86.52-86.519c6.549-6.551,10.155-15.259,10.155-24.521
			C377.197,371.681,361.64,356.125,342.519,356.125z M352.616,400.9l-86.52,86.519c-2.696,2.698-6.282,4.183-10.096,4.183
			s-7.399-1.485-10.097-4.184l-86.519-86.519c-2.698-2.696-4.183-6.283-4.183-10.097c0-7.874,6.406-14.279,14.28-14.279h53.378
			c5.632,0,10.199-4.567,10.199-10.199V43.339c0-12.649,10.292-22.941,22.942-22.941s22.942,10.292,22.942,22.941v322.984
			c0,5.632,4.567,10.199,10.199,10.199h53.378c7.874,0,14.28,6.406,14.28,14.28C356.799,394.616,355.314,398.202,352.616,400.9z"/>
	</g>
</g>
<g>
	<g>
		<path d="M319.664,407.762c-3.985-3.982-10.441-3.982-14.425,0l-1.494,1.494c-3.983,3.984-3.983,10.442,0,14.425
			c1.992,1.991,4.601,2.987,7.212,2.987c2.61,0,5.22-0.996,7.213-2.987l1.494-1.494
			C323.647,418.203,323.647,411.745,319.664,407.762z"/>
	</g>
</g>
<g>
	<g>
		<path d="M295.425,432.003c-3.983-3.981-10.439-3.982-14.425,0l-31.192,31.191c-3.983,3.984-3.983,10.442,0,14.425
			c1.992,1.991,4.601,2.987,7.212,2.987c2.61,0,5.22-0.996,7.213-2.987l31.192-31.191
			C299.408,442.443,299.408,435.985,295.425,432.003z"/>
	</g>
</g>
<g>
</g>
<g>
</g>
<g>
</g>
<g>
</g>
<g>
</g>
<g>
</g>
<g>
</g>
<g>
</g>
<g>
</g>
<g>
</g>
<g>
</g>
<g>
</g>
<g>
</g>
<g>
</g>
<g>
</g>
</svg>
